<svg width="410" height="352" viewBox="0 0 410 352" fill="none" xmlns="http://www.w3.org/2000/svg">
<path d="M190.022 16.64H193.051C193.51 16.64 193.883 16.6573 194.169 16.692C194.901 16.7787 195.532 17.0365 196.06 17.4655C196.593 17.8945 196.998 18.4448 197.276 19.1165C197.553 19.7838 197.692 20.5183 197.692 21.32C197.692 22.1217 197.553 22.8583 197.276 23.53C196.998 24.1973 196.593 24.7455 196.06 25.1745C195.532 25.6035 194.901 25.8613 194.169 25.948C193.883 25.9827 193.51 26 193.051 26H190.022V16.64ZM193.051 24.336C193.51 24.336 193.848 24.3143 194.065 24.271C194.455 24.193 194.78 24.0088 195.04 23.7185C195.304 23.4238 195.499 23.0685 195.625 22.6525C195.755 22.2322 195.82 21.788 195.82 21.32C195.82 20.839 195.753 20.3883 195.618 19.968C195.488 19.5477 195.291 19.1945 195.027 18.9085C194.767 18.6225 194.446 18.4427 194.065 18.369C193.922 18.3387 193.766 18.3213 193.597 18.317C193.428 18.3083 193.246 18.304 193.051 18.304H191.816V24.336H193.051ZM199.251 16.64H205.361V18.291H201.019V20.293H204.581V21.944H201.019V24.349H205.361V26H199.251V16.64ZM206.919 16.64H212.639V18.408H208.687V20.436H211.859V22.204H208.687V26H206.919V16.64ZM213.943 16.64H215.711V26H213.943V16.64ZM217.66 16.64H219.454L223.523 22.88V16.64H225.317V26H223.523L219.454 19.76V26H217.66V16.64ZM227.13 16.64H233.24V18.291H228.898V20.293H232.46V21.944H228.898V24.349H233.24V26H227.13V16.64Z" fill="black" fill-opacity="0.87"/>
<path opacity="0.32" d="M173.657 174.36C172.385 174.36 171.229 174.132 170.189 173.676C169.157 173.22 168.313 172.568 167.657 171.72C167.001 170.872 166.585 169.872 166.409 168.72L169.817 168.216C169.977 168.864 170.253 169.424 170.645 169.896C171.037 170.36 171.509 170.712 172.061 170.952C172.621 171.192 173.225 171.312 173.873 171.312C174.425 171.312 174.953 171.228 175.457 171.06C175.961 170.884 176.369 170.628 176.681 170.292C177.001 169.956 177.161 169.56 177.161 169.104C177.161 168.856 177.109 168.628 177.005 168.42C176.909 168.212 176.737 168.02 176.489 167.844C176.249 167.66 175.913 167.504 175.481 167.376L170.993 166.056C170.337 165.872 169.733 165.636 169.181 165.348C168.637 165.06 168.149 164.604 167.717 163.98C167.293 163.356 167.081 162.544 167.081 161.544C167.081 160.424 167.365 159.476 167.933 158.7C168.501 157.916 169.273 157.332 170.249 156.948C171.225 156.564 172.321 156.376 173.537 156.384C174.729 156.4 175.793 156.604 176.729 156.996C177.665 157.388 178.449 157.96 179.081 158.712C179.713 159.464 180.169 160.376 180.449 161.448L176.921 162.048C176.801 161.504 176.569 161.04 176.225 160.656C175.881 160.264 175.473 159.968 175.001 159.768C174.529 159.56 174.025 159.448 173.489 159.432C172.977 159.416 172.489 159.488 172.025 159.648C171.569 159.8 171.201 160.028 170.921 160.332C170.649 160.636 170.513 160.984 170.513 161.376C170.513 161.728 170.621 162.024 170.837 162.264C171.053 162.504 171.325 162.696 171.653 162.84C171.981 162.976 172.369 163.104 172.817 163.224L175.817 164.04C176.673 164.272 177.429 164.54 178.085 164.844C178.749 165.148 179.333 165.628 179.837 166.284C180.341 166.94 180.593 167.8 180.593 168.864C180.593 170.048 180.269 171.056 179.621 171.888C178.981 172.712 178.133 173.332 177.077 173.748C176.021 174.156 174.881 174.36 173.657 174.36ZM183.231 156.72H190.527C191.079 156.72 191.559 156.752 191.967 156.816C192.975 156.968 193.811 157.304 194.475 157.824C195.139 158.336 195.631 158.984 195.951 159.768C196.271 160.552 196.431 161.44 196.431 162.432C196.431 163.424 196.267 164.312 195.939 165.096C195.619 165.88 195.127 166.532 194.463 167.052C193.799 167.564 192.967 167.896 191.967 168.048C191.559 168.112 191.079 168.144 190.527 168.144H186.495V174H183.231V156.72ZM190.383 165.096C190.839 165.096 191.207 165.056 191.487 164.976C191.895 164.864 192.223 164.672 192.471 164.4C192.719 164.12 192.891 163.812 192.987 163.476C193.091 163.132 193.143 162.784 193.143 162.432C193.143 162.08 193.091 161.736 192.987 161.4C192.891 161.056 192.719 160.748 192.471 160.476C192.223 160.196 191.895 160 191.487 159.888C191.207 159.808 190.839 159.768 190.383 159.768H186.495V165.096H190.383ZM198.84 156.72H206.136C206.688 156.72 207.168 156.752 207.576 156.816C208.584 156.968 209.42 157.304 210.084 157.824C210.748 158.336 211.24 158.984 211.56 159.768C211.88 160.552 212.04 161.44 212.04 162.432C212.04 163.424 211.876 164.312 211.548 165.096C211.228 165.88 210.736 166.532 210.072 167.052C209.408 167.564 208.576 167.896 207.576 168.048L206.136 168.144H202.104V174H198.84V156.72ZM205.176 166.968L208.536 166.32L212.28 174H208.584L205.176 166.968ZM205.992 165.096C206.448 165.096 206.816 165.056 207.096 164.976C207.504 164.864 207.832 164.672 208.08 164.4C208.328 164.12 208.5 163.812 208.596 163.476C208.7 163.132 208.752 162.784 208.752 162.432C208.752 162.08 208.7 161.736 208.596 161.4C208.5 161.056 208.328 160.748 208.08 160.476C207.832 160.196 207.504 160 207.096 159.888C206.816 159.808 206.448 159.768 205.992 159.768H202.104V165.096H205.992ZM215.158 156.72H218.422V174H215.158V156.72ZM222.02 156.72H225.332L232.844 168.24V156.72H236.156V174H232.844L225.332 162.48V174H222.02V156.72ZM243.512 159.768H238.064V156.72H252.224V159.768H246.776V174H243.512V159.768ZM181.905 207.36C180.201 207.36 178.717 206.988 177.453 206.244C176.189 205.492 175.217 204.436 174.537 203.076C173.865 201.716 173.529 200.144 173.529 198.36C173.529 196.576 173.865 195.004 174.537 193.644C175.217 192.284 176.189 191.232 177.453 190.488C178.717 189.736 180.201 189.36 181.905 189.36C183.209 189.36 184.385 189.58 185.433 190.02C186.481 190.46 187.369 191.092 188.097 191.916C188.833 192.732 189.385 193.704 189.753 194.832L186.465 195.744C186.137 194.68 185.589 193.864 184.821 193.296C184.053 192.72 183.081 192.432 181.905 192.432C180.825 192.432 179.917 192.676 179.181 193.164C178.445 193.644 177.889 194.328 177.513 195.216C177.145 196.096 176.961 197.144 176.961 198.36C176.961 199.576 177.145 200.628 177.513 201.516C177.889 202.396 178.445 203.08 179.181 203.568C179.917 204.048 180.825 204.288 181.905 204.288C183.081 204.288 184.053 204.004 184.821 203.436C185.589 202.86 186.137 202.04 186.465 200.976L189.753 201.888C189.385 203.016 188.833 203.992 188.097 204.816C187.369 205.632 186.481 206.26 185.433 206.7C184.385 207.14 183.209 207.36 181.905 207.36ZM195.892 199.968L189.988 189.72H193.804L197.548 196.224L201.292 189.72H205.108L199.204 199.968V207H195.892V199.968ZM213.241 207.36C211.537 207.36 210.053 206.988 208.789 206.244C207.525 205.492 206.553 204.436 205.873 203.076C205.201 201.716 204.865 200.144 204.865 198.36C204.865 196.576 205.201 195.004 205.873 193.644C206.553 192.284 207.525 191.232 208.789 190.488C210.053 189.736 211.537 189.36 213.241 189.36C214.545 189.36 215.721 189.58 216.769 190.02C217.817 190.46 218.705 191.092 219.433 191.916C220.169 192.732 220.721 193.704 221.089 194.832L217.801 195.744C217.473 194.68 216.925 193.864 216.157 193.296C215.389 192.72 214.417 192.432 213.241 192.432C212.161 192.432 211.253 192.676 210.517 193.164C209.781 193.644 209.225 194.328 208.849 195.216C208.481 196.096 208.297 197.144 208.297 198.36C208.297 199.576 208.481 200.628 208.849 201.516C209.225 202.396 209.781 203.08 210.517 203.568C211.253 204.048 212.161 204.288 213.241 204.288C214.417 204.288 215.389 204.004 216.157 203.436C216.925 202.86 217.473 202.04 217.801 200.976L221.089 201.888C220.721 203.016 220.169 203.992 219.433 204.816C218.705 205.632 217.817 206.26 216.769 206.7C215.721 207.14 214.545 207.36 213.241 207.36ZM223.971 189.72H227.235V203.952H234.675V207H223.971V189.72ZM236.715 189.72H247.995V192.768H239.979V196.464H246.555V199.512H239.979V203.952H247.995V207H236.715V189.72Z" fill="black" fill-opacity="0.87"/>
<path d="M350.087 99.64H353.116C353.576 99.64 353.948 99.6573 354.234 99.692C354.967 99.7787 355.597 100.036 356.126 100.465C356.659 100.894 357.064 101.445 357.341 102.116C357.619 102.784 357.757 103.518 357.757 104.32C357.757 105.122 357.619 105.858 357.341 106.53C357.064 107.197 356.659 107.745 356.126 108.174C355.597 108.603 354.967 108.861 354.234 108.948C353.948 108.983 353.576 109 353.116 109H350.087V99.64ZM353.116 107.336C353.576 107.336 353.914 107.314 354.13 107.271C354.52 107.193 354.845 107.009 355.105 106.718C355.37 106.424 355.565 106.068 355.69 105.652C355.82 105.232 355.885 104.788 355.885 104.32C355.885 103.839 355.818 103.388 355.684 102.968C355.554 102.548 355.357 102.194 355.092 101.908C354.832 101.622 354.512 101.443 354.13 101.369C353.987 101.339 353.831 101.321 353.662 101.317C353.493 101.308 353.311 101.304 353.116 101.304H351.881V107.336H353.116ZM359.317 99.64H365.427V101.291H361.085V103.293H364.647V104.944H361.085V107.349H365.427V109H359.317V99.64ZM367.115 99.64H368.883V107.349H372.913V109H367.115V99.64ZM374.148 99.64H375.916V109H374.148V99.64ZM377.02 99.64H378.84L381.18 107.336L383.559 99.64H385.379L382.519 109H379.88L377.02 99.64ZM386.358 99.64H392.468V101.291H388.126V103.293H391.688V104.944H388.126V107.349H392.468V109H386.358V99.64ZM394.026 99.64H397.978C398.277 99.64 398.537 99.6573 398.758 99.692C399.304 99.7743 399.757 99.9563 400.116 100.238C400.476 100.515 400.742 100.866 400.916 101.291C401.089 101.716 401.176 102.197 401.176 102.734C401.176 103.271 401.087 103.752 400.909 104.177C400.736 104.602 400.469 104.955 400.11 105.236C399.75 105.514 399.299 105.694 398.758 105.776L397.978 105.828H395.794V109H394.026V99.64ZM397.458 105.191L399.278 104.84L401.306 109H399.304L397.458 105.191ZM397.9 104.177C398.147 104.177 398.346 104.155 398.498 104.112C398.719 104.051 398.896 103.947 399.031 103.8C399.165 103.648 399.258 103.481 399.31 103.299C399.367 103.113 399.395 102.925 399.395 102.734C399.395 102.543 399.367 102.357 399.31 102.175C399.258 101.989 399.165 101.822 399.031 101.674C398.896 101.523 398.719 101.417 398.498 101.356C398.346 101.313 398.147 101.291 397.9 101.291H395.794V104.177H397.9ZM404.832 105.191L401.634 99.64H403.701L405.729 103.163L407.757 99.64H409.824L406.626 105.191V109H404.832V105.191Z" fill="black" fill-opacity="0.87"/>
<path d="M173.943 338.64H177.895C178.194 338.64 178.454 338.657 178.675 338.692C179.221 338.774 179.674 338.956 180.034 339.238C180.393 339.515 180.66 339.866 180.833 340.291C181.007 340.716 181.093 341.197 181.093 341.734C181.093 342.271 181.004 342.752 180.827 343.177C180.653 343.602 180.387 343.955 180.027 344.236C179.668 344.514 179.217 344.694 178.675 344.776C178.454 344.811 178.194 344.828 177.895 344.828H175.711V348H173.943V338.64ZM177.817 343.177C178.064 343.177 178.264 343.155 178.415 343.112C178.636 343.051 178.814 342.947 178.948 342.8C179.083 342.648 179.176 342.481 179.228 342.299C179.284 342.113 179.312 341.925 179.312 341.734C179.312 341.543 179.284 341.357 179.228 341.175C179.176 340.989 179.083 340.822 178.948 340.674C178.814 340.523 178.636 340.417 178.415 340.356C178.264 340.313 178.064 340.291 177.817 340.291H175.711V343.177H177.817ZM182.398 338.64H186.35C186.649 338.64 186.909 338.657 187.13 338.692C187.676 338.774 188.129 338.956 188.489 339.238C188.848 339.515 189.115 339.866 189.288 340.291C189.462 340.716 189.548 341.197 189.548 341.734C189.548 342.271 189.459 342.752 189.282 343.177C189.108 343.602 188.842 343.955 188.482 344.236C188.123 344.514 187.672 344.694 187.13 344.776L186.35 344.828H184.166V348H182.398V338.64ZM185.83 344.191L187.65 343.84L189.678 348H187.676L185.83 344.191ZM186.272 343.177C186.519 343.177 186.719 343.155 186.87 343.112C187.091 343.051 187.269 342.947 187.403 342.8C187.538 342.648 187.631 342.481 187.683 342.299C187.739 342.113 187.767 341.925 187.767 341.734C187.767 341.543 187.739 341.357 187.683 341.175C187.631 340.989 187.538 340.822 187.403 340.674C187.269 340.523 187.091 340.417 186.87 340.356C186.719 340.313 186.519 340.291 186.272 340.291H184.166V343.177H186.272ZM195.124 348.195C194.201 348.195 193.397 347.994 192.713 347.59C192.028 347.183 191.502 346.611 191.133 345.874C190.769 345.138 190.587 344.286 190.587 343.32C190.587 342.354 190.769 341.502 191.133 340.765C191.502 340.029 192.028 339.459 192.713 339.056C193.397 338.649 194.201 338.445 195.124 338.445C196.047 338.445 196.851 338.649 197.536 339.056C198.22 339.459 198.745 340.029 199.109 340.765C199.477 341.502 199.661 342.354 199.661 343.32C199.661 344.286 199.477 345.138 199.109 345.874C198.745 346.611 198.22 347.183 197.536 347.59C196.851 347.994 196.047 348.195 195.124 348.195ZM195.124 346.531C195.705 346.54 196.195 346.414 196.593 346.154C196.992 345.89 197.291 345.517 197.49 345.036C197.69 344.551 197.789 343.979 197.789 343.32C197.789 342.666 197.69 342.1 197.49 341.623C197.291 341.142 196.992 340.772 196.593 340.512C196.199 340.252 195.709 340.118 195.124 340.109C194.544 340.1 194.054 340.228 193.655 340.492C193.257 340.752 192.958 341.125 192.758 341.61C192.559 342.091 192.459 342.661 192.459 343.32C192.459 343.974 192.559 344.542 192.758 345.023C192.958 345.5 193.254 345.868 193.649 346.128C194.047 346.388 194.539 346.522 195.124 346.531ZM202.876 340.291H199.925V338.64H207.595V340.291H204.644V348H202.876V340.291ZM212.656 348.195C211.733 348.195 210.93 347.994 210.245 347.59C209.56 347.183 209.034 346.611 208.665 345.874C208.301 345.138 208.119 344.286 208.119 343.32C208.119 342.354 208.301 341.502 208.665 340.765C209.034 340.029 209.56 339.459 210.245 339.056C210.93 338.649 211.733 338.445 212.656 338.445C213.579 338.445 214.383 338.649 215.068 339.056C215.753 339.459 216.277 340.029 216.641 340.765C217.009 341.502 217.193 342.354 217.193 343.32C217.193 344.286 217.009 345.138 216.641 345.874C216.277 346.611 215.753 347.183 215.068 347.59C214.383 347.994 213.579 348.195 212.656 348.195ZM212.656 346.531C213.237 346.54 213.727 346.414 214.125 346.154C214.524 345.89 214.823 345.517 215.022 345.036C215.222 344.551 215.321 343.979 215.321 343.32C215.321 342.666 215.222 342.1 215.022 341.623C214.823 341.142 214.524 340.772 214.125 340.512C213.731 340.252 213.241 340.118 212.656 340.109C212.076 340.1 211.586 340.228 211.187 340.492C210.789 340.752 210.49 341.125 210.29 341.61C210.091 342.091 209.991 342.661 209.991 343.32C209.991 343.974 210.091 344.542 210.29 345.023C210.49 345.5 210.787 345.868 211.181 346.128C211.58 346.388 212.071 346.522 212.656 346.531ZM220.408 340.291H217.457V338.64H225.127V340.291H222.176V348H220.408V340.291ZM228.853 344.191L225.655 338.64H227.722L229.75 342.163L231.778 338.64H233.845L230.647 344.191V348H228.853V344.191ZM234.754 338.64H238.706C239.005 338.64 239.265 338.657 239.486 338.692C240.032 338.774 240.485 338.956 240.844 339.238C241.204 339.515 241.47 339.866 241.644 340.291C241.817 340.716 241.904 341.197 241.904 341.734C241.904 342.271 241.815 342.752 241.637 343.177C241.464 343.602 241.197 343.955 240.838 344.236C240.478 344.514 240.027 344.694 239.486 344.776C239.265 344.811 239.005 344.828 238.706 344.828H236.522V348H234.754V338.64ZM238.628 343.177C238.875 343.177 239.074 343.155 239.226 343.112C239.447 343.051 239.624 342.947 239.759 342.8C239.893 342.648 239.986 342.481 240.038 342.299C240.095 342.113 240.123 341.925 240.123 341.734C240.123 341.543 240.095 341.357 240.038 341.175C239.986 340.989 239.893 340.822 239.759 340.674C239.624 340.523 239.447 340.417 239.226 340.356C239.074 340.313 238.875 340.291 238.628 340.291H236.522V343.177H238.628ZM243.209 338.64H249.319V340.291H244.977V342.293H248.539V343.944H244.977V346.349H249.319V348H243.209V338.64Z" fill="black" fill-opacity="0.87"/>
<path d="M364.317 177.64H366.085V187H364.317V177.64ZM368.034 177.64H371.063C371.522 177.64 371.895 177.657 372.181 177.692C372.913 177.779 373.543 178.036 374.072 178.465C374.605 178.894 375.01 179.445 375.288 180.116C375.565 180.784 375.704 181.518 375.704 182.32C375.704 183.122 375.565 183.858 375.288 184.53C375.01 185.197 374.605 185.745 374.072 186.174C373.543 186.603 372.913 186.861 372.181 186.948C371.895 186.983 371.522 187 371.063 187H368.034V177.64ZM371.063 185.336C371.522 185.336 371.86 185.314 372.077 185.271C372.467 185.193 372.792 185.009 373.052 184.718C373.316 184.424 373.511 184.068 373.637 183.652C373.767 183.232 373.832 182.788 373.832 182.32C373.832 181.839 373.764 181.388 373.63 180.968C373.5 180.548 373.303 180.194 373.039 179.908C372.779 179.622 372.458 179.443 372.077 179.369C371.934 179.339 371.778 179.321 371.609 179.317C371.44 179.308 371.258 179.304 371.063 179.304H369.828V185.336H371.063ZM377.263 177.64H383.373V179.291H379.031V181.293H382.593V182.944H379.031V185.349H383.373V187H377.263V177.64ZM387.141 177.64H389.78L392.64 187H390.82L388.272 178.745H388.61L386.101 187H384.281L387.141 177.64ZM385.997 183.399H390.937V185.05H385.997V183.399ZM395.202 179.291H392.251V177.64H399.921V179.291H396.97V187H395.202V179.291ZM400.965 177.64H407.075V179.291H402.733V181.293H406.295V182.944H402.733V185.349H407.075V187H400.965V177.64Z" fill="black" fill-opacity="0.87"/>
<path d="M29.4516 179.291H26.5006V177.64H34.1706V179.291H31.2196V187H29.4516V179.291ZM35.2152 177.64H41.3252V179.291H36.9832V181.293H40.5452V182.944H36.9832V185.349H41.3252V187H35.2152V177.64ZM46.4191 187.195C45.7301 187.195 45.104 187.072 44.5406 186.824C43.9816 186.577 43.5245 186.224 43.1691 185.765C42.8138 185.306 42.5885 184.764 42.4931 184.14L44.3391 183.867C44.4258 184.218 44.5753 184.521 44.7876 184.777C45 185.028 45.2556 185.219 45.5546 185.349C45.858 185.479 46.1851 185.544 46.5361 185.544C46.8351 185.544 47.1211 185.498 47.3941 185.407C47.6671 185.312 47.8881 185.173 48.0571 184.991C48.2305 184.809 48.3171 184.595 48.3171 184.348C48.3171 184.214 48.289 184.09 48.2326 183.977C48.1806 183.865 48.0875 183.761 47.9531 183.665C47.8231 183.566 47.6411 183.481 47.4071 183.412L44.9761 182.697C44.6208 182.597 44.2936 182.469 43.9946 182.313C43.7 182.157 43.4356 181.91 43.2016 181.572C42.972 181.234 42.8571 180.795 42.8571 180.253C42.8571 179.646 43.011 179.133 43.3186 178.712C43.6263 178.288 44.0445 177.971 44.5731 177.763C45.1018 177.555 45.6955 177.454 46.3541 177.458C46.9998 177.467 47.5761 177.577 48.0831 177.789C48.5901 178.002 49.0148 178.312 49.3571 178.719C49.6995 179.126 49.9465 179.62 50.0981 180.201L48.1871 180.526C48.1221 180.231 47.9965 179.98 47.8101 179.772C47.6238 179.56 47.4028 179.399 47.1471 179.291C46.8915 179.178 46.6185 179.118 46.3281 179.109C46.0508 179.1 45.7865 179.139 45.5351 179.226C45.2881 179.308 45.0888 179.432 44.9371 179.596C44.7898 179.761 44.7161 179.95 44.7161 180.162C44.7161 180.353 44.7746 180.513 44.8916 180.643C45.0086 180.773 45.156 180.877 45.3336 180.955C45.5113 181.029 45.7215 181.098 45.9641 181.163L47.5891 181.605C48.0528 181.731 48.4623 181.876 48.8176 182.04C49.1773 182.205 49.4936 182.465 49.7666 182.82C50.0396 183.176 50.1761 183.642 50.1761 184.218C50.1761 184.859 50.0006 185.405 49.6496 185.856C49.303 186.302 48.8436 186.638 48.2716 186.863C47.6996 187.085 47.0821 187.195 46.4191 187.195ZM53.7758 179.291H50.8248V177.64H58.4948V179.291H55.5438V187H53.7758V179.291Z" fill="black" fill-opacity="0.87"/>
<path d="M0.998379 99.64H4.02738C4.48671 99.64 4.85938 99.6573 5.14538 99.692C5.87771 99.7787 6.50821 100.036 7.03688 100.465C7.56988 100.894 7.97505 101.445 8.25238 102.116C8.52971 102.784 8.66838 103.518 8.66838 104.32C8.66838 105.122 8.52971 105.858 8.25238 106.53C7.97505 107.197 7.56988 107.745 7.03688 108.174C6.50821 108.603 5.87771 108.861 5.14538 108.948C4.85938 108.983 4.48671 109 4.02738 109H0.998379V99.64ZM4.02738 107.336C4.48671 107.336 4.82471 107.314 5.04138 107.271C5.43138 107.193 5.75638 107.009 6.01638 106.718C6.28071 106.424 6.47571 106.068 6.60138 105.652C6.73138 105.232 6.79638 104.788 6.79638 104.32C6.79638 103.839 6.72921 103.388 6.59488 102.968C6.46488 102.548 6.26771 102.194 6.00338 101.908C5.74338 101.622 5.42271 101.443 5.04138 101.369C4.89838 101.339 4.74238 101.321 4.57338 101.317C4.40438 101.308 4.22238 101.304 4.02738 101.304H2.79238V107.336H4.02738ZM10.3579 99.64H12.1259V109H10.3579V99.64ZM17.6106 109.195C16.9216 109.195 16.2954 109.072 15.7321 108.824C15.1731 108.577 14.7159 108.224 14.3606 107.765C14.0052 107.306 13.7799 106.764 13.6846 106.14L15.5306 105.867C15.6172 106.218 15.7667 106.521 15.9791 106.777C16.1914 107.028 16.4471 107.219 16.7461 107.349C17.0494 107.479 17.3766 107.544 17.7276 107.544C18.0266 107.544 18.3126 107.498 18.5856 107.407C18.8586 107.312 19.0796 107.173 19.2486 106.991C19.4219 106.809 19.5086 106.595 19.5086 106.348C19.5086 106.214 19.4804 106.09 19.4241 105.977C19.3721 105.865 19.2789 105.761 19.1446 105.665C19.0146 105.566 18.8326 105.481 18.5986 105.412L16.1676 104.697C15.8122 104.597 15.4851 104.469 15.1861 104.313C14.8914 104.157 14.6271 103.91 14.3931 103.572C14.1634 103.234 14.0486 102.795 14.0486 102.253C14.0486 101.646 14.2024 101.133 14.5101 100.712C14.8177 100.288 15.2359 99.9715 15.7646 99.7635C16.2932 99.5555 16.8869 99.4537 17.5456 99.458C18.1912 99.4667 18.7676 99.5772 19.2746 99.7895C19.7816 100.002 20.2062 100.312 20.5486 100.719C20.8909 101.126 21.1379 101.62 21.2896 102.201L19.3786 102.526C19.3136 102.231 19.1879 101.98 19.0016 101.772C18.8152 101.56 18.5942 101.399 18.3386 101.291C18.0829 101.178 17.8099 101.118 17.5196 101.109C17.2422 101.1 16.9779 101.139 16.7266 101.226C16.4796 101.308 16.2802 101.432 16.1286 101.596C15.9812 101.761 15.9076 101.95 15.9076 102.162C15.9076 102.353 15.9661 102.513 16.0831 102.643C16.2001 102.773 16.3474 102.877 16.5251 102.955C16.7027 103.029 16.9129 103.098 17.1556 103.163L18.7806 103.605C19.2442 103.731 19.6537 103.876 20.0091 104.04C20.3687 104.205 20.6851 104.465 20.9581 104.82C21.2311 105.176 21.3676 105.642 21.3676 106.218C21.3676 106.859 21.1921 107.405 20.8411 107.856C20.4944 108.302 20.0351 108.638 19.4631 108.863C18.8911 109.085 18.2736 109.195 17.6106 109.195ZM26.8132 109.195C25.8902 109.195 25.0864 108.994 24.4017 108.59C23.7171 108.183 23.1906 107.611 22.8222 106.874C22.4582 106.138 22.2762 105.286 22.2762 104.32C22.2762 103.354 22.4582 102.502 22.8222 101.765C23.1906 101.029 23.7171 100.459 24.4017 100.056C25.0864 99.6487 25.8902 99.445 26.8132 99.445C27.5196 99.445 28.1566 99.5642 28.7242 99.8025C29.2919 100.041 29.7729 100.383 30.1672 100.829C30.5659 101.271 30.8649 101.798 31.0642 102.409L29.2832 102.903C29.1056 102.327 28.8087 101.885 28.3927 101.577C27.9767 101.265 27.4502 101.109 26.8132 101.109C26.2282 101.109 25.7364 101.241 25.3377 101.506C24.9391 101.765 24.6379 102.136 24.4342 102.617C24.2349 103.094 24.1352 103.661 24.1352 104.32C24.1352 104.979 24.2349 105.548 24.4342 106.029C24.6379 106.506 24.9391 106.877 25.3377 107.141C25.7364 107.401 26.2282 107.531 26.8132 107.531C27.4502 107.531 27.9767 107.377 28.3927 107.069C28.8087 106.757 29.1056 106.313 29.2832 105.737L31.0642 106.231C30.8649 106.842 30.5659 107.371 30.1672 107.817C29.7729 108.259 29.2919 108.599 28.7242 108.837C28.1566 109.076 27.5196 109.195 26.8132 109.195ZM36.5124 109.195C35.5894 109.195 34.7856 108.994 34.1009 108.59C33.4163 108.183 32.8898 107.611 32.5214 106.874C32.1574 106.138 31.9754 105.286 31.9754 104.32C31.9754 103.354 32.1574 102.502 32.5214 101.765C32.8898 101.029 33.4163 100.459 34.1009 100.056C34.7856 99.6487 35.5894 99.445 36.5124 99.445C37.4354 99.445 38.2393 99.6487 38.9239 100.056C39.6086 100.459 40.1329 101.029 40.4969 101.765C40.8653 102.502 41.0494 103.354 41.0494 104.32C41.0494 105.286 40.8653 106.138 40.4969 106.874C40.1329 107.611 39.6086 108.183 38.9239 108.59C38.2393 108.994 37.4354 109.195 36.5124 109.195ZM36.5124 107.531C37.0931 107.54 37.5828 107.414 37.9814 107.154C38.3801 106.89 38.6791 106.517 38.8784 106.036C39.0778 105.551 39.1774 104.979 39.1774 104.32C39.1774 103.666 39.0778 103.1 38.8784 102.623C38.6791 102.142 38.3801 101.772 37.9814 101.512C37.5871 101.252 37.0974 101.118 36.5124 101.109C35.9318 101.1 35.4421 101.228 35.0434 101.492C34.6448 101.752 34.3458 102.125 34.1464 102.61C33.9471 103.091 33.8474 103.661 33.8474 104.32C33.8474 104.974 33.9471 105.542 34.1464 106.023C34.3458 106.5 34.6426 106.868 35.0369 107.128C35.4356 107.388 35.9274 107.522 36.5124 107.531ZM41.1085 99.64H42.9285L45.2685 107.336L47.6475 99.64H49.4675L46.6075 109H43.9685L41.1085 99.64ZM50.4466 99.64H56.5566V101.291H52.2146V103.293H55.7766V104.944H52.2146V107.349H56.5566V109H50.4466V99.64ZM58.1146 99.64H62.0666C62.3656 99.64 62.6256 99.6573 62.8466 99.692C63.3926 99.7743 63.8454 99.9563 64.2051 100.238C64.5648 100.515 64.8313 100.866 65.0046 101.291C65.1779 101.716 65.2646 102.197 65.2646 102.734C65.2646 103.271 65.1758 103.752 64.9981 104.177C64.8248 104.602 64.5583 104.955 64.1986 105.236C63.8389 105.514 63.3883 105.694 62.8466 105.776L62.0666 105.828H59.8826V109H58.1146V99.64ZM61.5466 105.191L63.3666 104.84L65.3946 109H63.3926L61.5466 105.191ZM61.9886 104.177C62.2356 104.177 62.4349 104.155 62.5866 104.112C62.8076 104.051 62.9853 103.947 63.1196 103.8C63.2539 103.648 63.3471 103.481 63.3991 103.299C63.4554 103.113 63.4836 102.925 63.4836 102.734C63.4836 102.543 63.4554 102.357 63.3991 102.175C63.3471 101.989 63.2539 101.822 63.1196 101.674C62.9853 101.523 62.8076 101.417 62.5866 101.356C62.4349 101.313 62.2356 101.291 61.9886 101.291H59.8826V104.177H61.9886ZM68.9211 105.191L65.7231 99.64H67.7901L69.8181 103.163L71.8461 99.64H73.9131L70.7151 105.191V109H68.9211V105.191Z" fill="black" fill-opacity="0.87"/>
<g clip-path="url(#clip0_465_7100)">
<path fill-rule="evenodd" clip-rule="evenodd" d="M92.9004 138.709C92.5077 128.604 97.2993 117.493 104.805 107.505C116.022 92.5824 133.282 80.1627 148.11 77.3055C148.416 77.2504 148.712 77.4518 148.77 77.7533C148.83 78.0622 148.631 78.3538 148.322 78.4136C133.725 81.2283 116.75 93.4875 105.708 108.186C98.3705 117.946 93.642 128.787 94.0303 138.665C94.0437 138.978 93.8009 139.238 93.4874 139.251C93.1812 139.263 92.9138 139.022 92.9004 138.709Z" fill="black"/>
<path fill-rule="evenodd" clip-rule="evenodd" d="M164.035 69.0732C155.53 71.1675 148.276 73.8672 139.047 72.5933C138.737 72.5463 138.518 72.2646 138.565 71.9546C138.604 71.6465 138.891 71.4303 139.196 71.4746C149.351 72.8746 157.075 69.3582 166.791 67.2731C167.316 67.1628 167.497 67.5223 167.533 67.6117C167.588 67.7434 167.633 67.969 167.436 68.2049C167.397 68.2511 167.307 68.3308 167.166 68.4245C166.892 68.5978 166.304 68.9034 166.055 69.066C165.339 69.5411 164.639 70.0318 163.923 70.5069C161.876 71.8654 159.85 73.2421 157.927 74.7653C150.723 80.4525 144.797 85.0568 143.464 94.4645C143.422 94.7772 143.138 94.9888 142.825 94.9465C142.52 94.9023 142.304 94.6158 142.348 94.3105C143.724 84.5779 149.779 79.7605 157.226 73.8764C159.177 72.3378 161.229 70.9384 163.296 69.5665C163.545 69.4039 163.79 69.2385 164.035 69.0732Z" fill="black"/>
</g>
<g clip-path="url(#clip1_465_7100)">
<path fill-rule="evenodd" clip-rule="evenodd" d="M322.725 229.916C323.117 240.021 318.326 251.131 310.82 261.12C299.603 276.043 282.343 288.462 267.515 291.319C267.209 291.374 266.913 291.173 266.855 290.872C266.795 290.563 266.994 290.271 267.303 290.211C281.9 287.397 298.875 275.137 309.917 260.439C317.254 250.679 321.983 239.838 321.595 229.96C321.581 229.647 321.824 229.387 322.138 229.373C322.444 229.362 322.711 229.603 322.725 229.916Z" fill="black"/>
<path fill-rule="evenodd" clip-rule="evenodd" d="M251.59 299.552C260.095 297.457 267.349 294.758 276.578 296.032C276.888 296.079 277.107 296.36 277.06 296.67C277.021 296.978 276.734 297.195 276.429 297.15C266.274 295.75 258.55 299.267 248.834 301.352C248.309 301.462 248.128 301.103 248.092 301.013C248.037 300.882 247.992 300.656 248.189 300.42C248.228 300.374 248.318 300.294 248.459 300.2C248.733 300.027 249.321 299.721 249.57 299.559C250.286 299.084 250.986 298.593 251.702 298.118C253.749 296.759 255.775 295.383 257.698 293.86C264.902 288.172 270.828 283.568 272.161 274.16C272.203 273.848 272.487 273.636 272.8 273.678C273.105 273.723 273.321 274.009 273.277 274.314C271.901 284.047 265.846 288.864 258.399 294.748C256.448 296.287 254.396 297.687 252.329 299.058C252.08 299.221 251.835 299.386 251.59 299.552Z" fill="black"/>
</g>
<g clip-path="url(#clip2_465_7100)">
<path fill-rule="evenodd" clip-rule="evenodd" d="M250.956 66.8128C261.062 66.4441 272.161 71.262 282.131 78.7916C297.027 90.0435 309.406 107.333 312.228 122.168C312.282 122.474 312.08 122.77 311.779 122.827C311.469 122.886 311.178 122.687 311.119 122.378C308.339 107.774 296.12 90.7698 281.448 79.6928C271.705 72.3322 260.876 67.5779 250.997 67.9428C250.684 67.9555 250.424 67.712 250.412 67.3984C250.401 67.0923 250.643 66.8255 250.956 66.8128Z" fill="black"/>
<path fill-rule="evenodd" clip-rule="evenodd" d="M320.422 138.113C318.348 129.603 315.666 122.342 316.961 113.116C317.009 112.806 317.291 112.588 317.601 112.635C317.909 112.676 318.125 112.963 318.08 113.268C316.656 123.42 320.154 131.152 322.216 140.873C322.325 141.398 321.965 141.578 321.875 141.614C321.744 141.669 321.518 141.714 321.282 141.515C321.236 141.476 321.157 141.386 321.063 141.245C320.891 140.97 320.587 140.382 320.425 140.133C319.951 139.415 319.462 138.714 318.989 137.997C317.635 135.947 316.263 133.918 314.745 131.991C309.075 124.774 304.484 118.836 295.08 117.482C294.767 117.438 294.556 117.154 294.599 116.842C294.644 116.536 294.931 116.321 295.237 116.366C304.966 117.764 309.769 123.831 315.635 131.293C317.169 133.247 318.564 135.302 319.931 137.373C320.093 137.622 320.258 137.867 320.422 138.113Z" fill="black"/>
</g>
<g clip-path="url(#clip3_465_7100)">
<path d="M103.939 246.289L103.94 246.289C103.961 246.285 103.977 246.29 103.988 246.297C103.999 246.305 104.01 246.318 104.015 246.341C104.015 246.341 104.015 246.341 104.015 246.341L104.506 246.247C107.286 260.851 119.505 277.855 134.177 288.932C143.92 296.293 154.749 301.047 164.628 300.682L103.939 246.289ZM103.939 246.289C103.926 246.292 103.913 246.299 103.901 246.316C103.891 246.332 103.886 246.35 103.889 246.368C106.683 261.044 118.966 278.233 133.795 289.434C143.719 296.929 154.705 301.675 164.649 301.313C164.666 301.312 164.682 301.305 164.695 301.291C164.708 301.276 164.714 301.26 164.714 301.245L103.939 246.289Z" fill="black" stroke="black"/>
<path d="M95.6216 230.239C95.7843 230.481 95.9497 230.727 96.1126 230.979C97.4778 233.046 98.8627 235.086 100.383 237.023C106.261 244.5 110.953 250.398 120.46 251.764L120.461 251.765C120.475 251.767 120.49 251.764 120.505 251.752C120.52 251.741 120.528 251.727 120.531 251.713C120.533 251.69 120.527 251.673 120.518 251.662C120.51 251.651 120.497 251.642 120.477 251.639L120.474 251.638C110.953 250.267 106.248 244.276 100.677 237.184C100.614 237.104 100.551 237.024 100.487 236.943C98.9548 234.999 97.5734 232.955 96.219 230.903C95.9843 230.548 95.7455 230.196 95.5046 229.841L95.5038 229.84C95.2637 229.486 95.0216 229.129 94.7831 228.768L94.7809 228.765C94.6882 228.622 94.5618 228.394 94.4477 228.188L94.4409 228.176C94.3238 227.965 94.2168 227.772 94.1412 227.651C94.1048 227.596 94.0733 227.555 94.0495 227.526C94.0296 227.502 94.0186 227.491 94.0171 227.489C93.9978 227.474 93.9856 227.468 93.9811 227.466C93.9792 227.465 93.9778 227.465 93.9767 227.465C93.9753 227.464 93.9746 227.464 93.9743 227.464C93.9718 227.464 93.9614 227.464 93.9425 227.472L93.9425 227.472L93.9363 227.475C93.9362 227.475 93.9305 227.478 93.9229 227.483C93.9139 227.489 93.9072 227.495 93.9029 227.501C93.8999 227.505 93.8956 227.511 93.8925 227.526C93.8892 227.541 93.8841 227.579 93.8986 227.649C94.4111 230.066 95.0133 232.36 95.609 234.611C95.6351 234.709 95.6612 234.808 95.6872 234.906C96.2553 237.052 96.8142 239.163 97.2732 241.287C98.2348 245.738 98.7633 250.272 98.0403 255.426L98.0398 255.43C98.0378 255.444 98.041 255.458 98.0511 255.471C98.0611 255.485 98.0741 255.492 98.0886 255.494L98.0886 255.494L98.0997 255.495C98.1145 255.498 98.1273 255.494 98.14 255.485C98.1532 255.475 98.165 255.458 98.1691 255.435C99.225 247.909 97.603 241.731 95.8289 234.973C95.4572 233.557 95.0788 232.115 94.717 230.631L95.6178 230.234L95.6216 230.239Z" fill="black" stroke="black"/>
</g>
<circle cx="39" cy="62" r="24" fill="#FFD2FB"/>
<circle cx="380" cy="62" r="24" fill="#9DFFF9"/>
<circle cx="211" cy="62" r="24" fill="#FFFF99"/>
<circle cx="211" cy="302" r="24" fill="#75FFDC"/>
<circle cx="331" cy="182" r="24" fill="#FFFF99"/>
<circle cx="91" cy="182" r="24" fill="#75FFDC"/>
<path fill-rule="evenodd" clip-rule="evenodd" d="M96.0517 56.9332C96.3021 56.1309 96.5139 55.4385 96.6239 55.0719C97.2877 52.8401 99.6092 47.4967 99.9574 43.2366C100.224 39.9866 99.3465 37.3556 96.351 36.6185C93.6284 35.9485 90.8793 37.6041 88.4438 40.5873C83.2022 47.008 79.2273 59.5031 79.0012 63.588C78.9768 64.034 79.3169 64.4148 79.7628 64.4392C80.2068 64.4636 80.5875 64.1236 80.612 63.6776C80.8299 59.7576 84.6623 47.7716 89.6942 41.6076C91.6613 39.1985 93.7668 37.6448 95.9661 38.1865C98.1369 38.72 98.5422 40.7482 98.3487 43.1043C98.0107 47.2503 95.7238 52.4389 95.0763 54.6117C94.671 55.9741 92.9788 61.1261 92.9401 61.6026C92.8912 62.1992 93.3169 62.3988 93.4614 62.4538C93.5734 62.4965 94.1456 62.6737 94.502 62.0322C99.5888 52.889 113.723 42.3793 128.78 38.1905C143.705 34.0384 159.582 36.1257 168.355 52.2394C168.569 52.6304 169.059 52.7749 169.45 52.5631C169.841 52.3493 169.986 51.8586 169.772 51.4676C160.58 34.5841 143.983 32.2851 128.348 36.6347C115.171 40.3002 102.711 48.7104 96.0517 56.9332Z" fill="black"/>
<path fill-rule="evenodd" clip-rule="evenodd" d="M168.494 51.0785C166.733 50.3577 165.002 49.5839 163.183 48.9994C158.339 47.4416 152.975 46.849 147.947 47.745C147.508 47.8244 147.216 48.2439 147.294 48.6817C147.373 49.1216 147.793 49.4128 148.23 49.3354C153.002 48.4822 158.092 49.0584 162.689 50.5368C164.77 51.2068 166.737 52.1293 168.767 52.9296C168.869 52.9683 169.74 53.343 169.946 53.3715C170.425 53.4407 170.667 53.1638 170.763 53.0212C170.844 52.9031 170.913 52.7422 170.92 52.5264C170.924 52.3492 170.852 52.0112 170.661 51.5795C170.052 50.1948 168.168 47.1687 167.912 46.6393C164.969 40.5709 163.251 34.4313 161.279 28.0127C161.147 27.5871 160.695 27.3468 160.269 27.4771C159.844 27.6074 159.606 28.0595 159.736 28.4851C161.731 34.9852 163.481 41.2001 166.46 47.3418C166.635 47.7063 167.716 49.6714 168.494 51.0785Z" fill="black"/>
<g clip-path="url(#clip4_465_7100)">
<path fill-rule="evenodd" clip-rule="evenodd" d="M294.223 46.3839C294.6 46.4565 294.976 46.6017 295.351 46.747C297.378 47.4005 299.742 48.1268 301.487 49.4339C303.775 51.1767 304.659 53.1372 304.64 55.0978C304.61 57.8573 302.574 60.689 299.785 62.4318C297.022 64.1746 293.561 64.901 290.773 63.8118C288.862 63.0856 287.232 61.4881 286.343 58.7287C285.318 55.6062 286.157 52.6289 287.964 50.0147C288.642 48.9981 289.459 48.1268 290.358 47.2554C289.175 47.0376 287.98 46.8194 286.769 46.6016C282.803 46.0207 278.635 45.8753 274.638 46.0931C269.35 46.311 264.291 47.4007 259.404 49.4339C258.952 49.5791 258.435 49.3612 258.249 48.9255C258.064 48.4898 258.279 47.9817 258.731 47.7639C263.81 45.658 269.068 44.4956 274.563 44.2777C278.677 44.1325 282.966 44.2057 287.047 44.8592C288.737 45.1497 290.397 45.44 292.037 45.8031C294.189 44.1329 296.581 42.8257 298.614 42.0269C312.216 36.9438 330.532 43.5516 342.857 50.087C343.288 50.3049 343.452 50.8136 343.224 51.2493C342.996 51.685 342.46 51.8302 342.029 51.6124C330.1 45.2948 312.403 38.759 299.239 43.6969C297.69 44.2779 295.913 45.222 294.223 46.3839ZM292.463 47.7639C293.24 47.9091 294.012 48.1265 294.781 48.417C296.639 49.0705 298.822 49.6513 300.42 50.8132C302.147 52.1203 302.886 53.5732 302.871 55.0255C302.848 57.3492 301.097 59.5274 298.841 60.9071C296.56 62.3595 293.718 63.0858 291.417 62.1418C289.936 61.5608 288.713 60.3261 288.024 58.2202C287.18 55.606 287.929 53.1375 289.419 51.0316C290.247 49.7971 291.303 48.7079 292.463 47.7639Z" fill="black"/>
<path fill-rule="evenodd" clip-rule="evenodd" d="M342.992 50.9573C342.735 50.5942 342.352 50.2311 341.968 49.868C341.229 49.1419 340.447 48.4882 340.034 47.9072C337.494 44.4217 334.491 40.21 333.16 36.0709C333.009 35.6352 333.264 35.1269 333.729 34.9817C334.193 34.8364 334.692 35.0541 334.842 35.5625C336.12 39.4837 339.028 43.4781 341.466 46.891C341.912 47.472 342.856 48.2703 343.613 48.9965C344.255 49.65 344.767 50.3037 344.952 50.9573C345.083 51.3203 344.938 51.9739 344.12 52.4096C342.961 52.9905 339.743 53.4993 339.431 53.5719C336.276 54.298 333.499 55.0241 331.506 57.7835C331.219 58.1466 330.665 58.219 330.271 58.0012C329.877 57.7107 329.789 57.1297 330.077 56.7666C332.348 53.6441 335.459 52.6276 339.056 51.8288C339.285 51.8288 341.209 51.5383 342.546 51.1026C342.69 51.03 342.849 51.0299 342.992 50.9573Z" fill="black"/>
</g>
<g clip-path="url(#clip5_465_7100)">
<path d="M328 191C328 191.55 328.45 192 329 192H333C333.55 192 334 191.55 334 191V190H328V191ZM331 172C327.14 172 324 175.14 324 179C324 181.38 325.19 183.47 327 184.74V187C327 187.55 327.45 188 328 188H334C334.55 188 335 187.55 335 187V184.74C336.81 183.47 338 181.38 338 179C338 175.14 334.86 172 331 172ZM333.85 183.1L333 183.7V186H329V183.7L328.15 183.1C326.8 182.16 326 180.63 326 179C326 176.24 328.24 174 331 174C333.76 174 336 176.24 336 179C336 180.63 335.2 182.16 333.85 183.1Z" fill="black"/>
</g>
<g clip-path="url(#clip6_465_7100)">
<path d="M38 56C39.38 56 40.63 56.56 41.54 57.46L39 60H45V54L42.95 56.05C41.68 54.78 39.93 54 38 54C34.47 54 31.57 56.61 31.08 60H33.1C33.56 57.72 35.58 56 38 56ZM43.64 65.14C44.3 64.24 44.76 63.17 44.92 62H42.9C42.44 64.28 40.42 66 38 66C36.62 66 35.37 65.44 34.46 64.54L37 62H31V68L33.05 65.95C34.32 67.22 36.07 68 38 68C39.55 68 40.98 67.49 42.14 66.64L47 71.49L48.49 70L43.64 65.14Z" fill="black"/>
</g>
<g clip-path="url(#clip7_465_7100)">
<path d="M211 58C208.79 58 207 59.79 207 62C207 64.21 208.79 66 211 66C213.21 66 215 64.21 215 62C215 59.79 213.21 58 211 58ZM219.94 61C219.48 56.83 216.17 53.52 212 53.06V51H210V53.06C205.83 53.52 202.52 56.83 202.06 61H200V63H202.06C202.52 67.17 205.83 70.48 210 70.94V73H212V70.94C216.17 70.48 219.48 67.17 219.94 63H222V61H219.94ZM211 69C207.13 69 204 65.87 204 62C204 58.13 207.13 55 211 55C214.87 55 218 58.13 218 62C218 65.87 214.87 69 211 69Z" fill="black"/>
</g>
<g clip-path="url(#clip8_465_7100)">
<path d="M94 174V181H84.17L83.58 181.59L83 182.17V174H94ZM95 172H82C81.45 172 81 172.45 81 173V187L85 183H95C95.55 183 96 182.55 96 182V173C96 172.45 95.55 172 95 172ZM100 176H98V185H85V187C85 187.55 85.45 188 86 188H97L101 192V177C101 176.45 100.55 176 100 176Z" fill="black"/>
</g>
<g clip-path="url(#clip9_465_7100)">
<path d="M219.97 297.27C220.36 296.88 220.36 296.25 219.97 295.86L217.14 293.03C216.75 292.64 216.12 292.64 215.73 293.03L211.24 297.52L207.35 293.63C206.57 292.85 205.3 292.85 204.52 293.63L202.62 295.53C201.84 296.31 201.84 297.58 202.62 298.36L206.51 302.25L202 306.76V311H206.24L210.76 306.48L214.65 310.37C215.6 311.32 216.88 310.97 217.48 310.37L219.38 308.47C220.16 307.69 220.16 306.42 219.38 305.64L215.49 301.75L219.97 297.27ZM204.04 296.94L205.93 295.04L207.2 296.31L206.02 297.5L207.43 298.91L208.62 297.72L209.82 298.92L207.92 300.82L204.04 296.94ZM215.27 304.38L214.08 305.57L215.49 306.98L216.68 305.79L217.95 307.06L216.05 308.96L212.16 305.07L214.06 303.17L215.27 304.38ZM205.41 309H204V307.59L213.61 297.98L214.91 299.28L215.02 299.39L205.41 309ZM215.02 296.56L216.43 295.15L217.84 296.56L216.43 297.97L215.02 296.56Z" fill="black"/>
</g>
<g clip-path="url(#clip10_465_7100)">
<path d="M377.4 65.6L372.8 61L377.4 56.4L376 55L370 61L376 67L377.4 65.6ZM382.6 65.6L387.2 61L382.6 56.4L384 55L390 61L384 67L382.6 65.6Z" fill="black"/>
</g>
<defs>
<clipPath id="clip0_465_7100">
<rect width="99.2947" height="99.2947" fill="white" transform="matrix(0.86721 0.497943 0.497943 -0.86721 60.0293 120.138)"/>
</clipPath>
<clipPath id="clip1_465_7100">
<rect width="99.2947" height="99.2947" fill="white" transform="matrix(-0.86721 -0.497943 -0.497943 0.86721 355.596 248.486)"/>
</clipPath>
<clipPath id="clip2_465_7100">
<rect width="99.2947" height="99.2947" fill="white" transform="matrix(-0.5 0.866025 0.866025 0.5 269.604 33.9858)"/>
</clipPath>
<clipPath id="clip3_465_7100">
<rect width="99.2947" height="99.2947" fill="white" transform="matrix(0.5 -0.866025 -0.866025 -0.5 146.021 334.639)"/>
</clipPath>
<clipPath id="clip4_465_7100">
<rect width="87" height="87" fill="white" transform="matrix(-4.37114e-08 -1 -1 4.37114e-08 345 93)"/>
</clipPath>
<clipPath id="clip5_465_7100">
<rect width="24" height="24" fill="white" transform="translate(319 170)"/>
</clipPath>
<clipPath id="clip6_465_7100">
<rect width="24" height="24" fill="white" transform="translate(27 50)"/>
</clipPath>
<clipPath id="clip7_465_7100">
<rect width="24" height="24" fill="white" transform="translate(199 49)"/>
</clipPath>
<clipPath id="clip8_465_7100">
<rect width="24" height="24" fill="white" transform="translate(79 170)"/>
</clipPath>
<clipPath id="clip9_465_7100">
<rect width="24" height="24" fill="white" transform="translate(199 290)"/>
</clipPath>
<clipPath id="clip10_465_7100">
<rect width="24" height="24" fill="white" transform="translate(368 49)"/>
</clipPath>
</defs>
</svg>
