<svg width="110" height="23" viewBox="0 0 110 23" fill="none" xmlns="http://www.w3.org/2000/svg">
<path fill-rule="evenodd" clip-rule="evenodd" d="M0.194336 0.747314V22.1979H13.5756V17.6834H5.35434V0.747314H0.194336Z" fill="#1D1D1B"/>
<path fill-rule="evenodd" clip-rule="evenodd" d="M31.7846 22.1979L30.0834 17.9866H21.6073L19.9987 22.1979H14.2446L23.4317 0.747314H28.5673L37.6619 22.1979H31.7846ZM25.9072 6.47387L23.123 13.836H28.6292L25.9072 6.47387Z" fill="#1D1D1B"/>
<path fill-rule="evenodd" clip-rule="evenodd" d="M46.8436 13.1086V22.1979H41.6798V13.1086L33.6475 0.747314H39.8985L44.458 8.68515L49.0181 0.747314H55.0575L46.8436 13.1086Z" fill="#1D1D1B"/>
<path fill-rule="evenodd" clip-rule="evenodd" d="M57.0649 22.1979V0.747314H71.2482V5.11021H61.9816V9.17022H70.7411V13.3209H61.9816V17.7744H71.7844V22.1979H57.0649Z" fill="#1D1D1B"/>
<path fill-rule="evenodd" clip-rule="evenodd" d="M86.2658 22.3195L81.594 13.756H79.8224V22.3195H74.7471V0.743164H82.9537C83.9863 0.743164 84.9943 0.850143 85.9777 1.06317C86.9598 1.27666 87.8416 1.6376 88.6219 2.14506C89.4017 2.65344 90.0242 3.32369 90.4913 4.15626C90.9566 4.98977 91.1895 6.02607 91.1895 7.26517C91.1895 8.72753 90.7947 9.95732 90.0042 10.9527C89.2142 11.9481 88.1199 12.6588 86.7223 13.0858L92.3445 22.3195H86.2658ZM86.0533 7.35634C86.0533 6.84888 85.9457 6.43724 85.7323 6.12235C85.5185 5.80746 85.2434 5.56374 84.9075 5.39071C84.5712 5.21861 84.1945 5.10094 83.778 5.04047C83.3605 4.97907 82.9578 4.94884 82.5714 4.94884H79.7923V9.97733H82.2662C82.6934 9.97733 83.1313 9.94198 83.5794 9.87035C84.0271 9.79965 84.4344 9.6722 84.8008 9.48941C85.1678 9.30661 85.4679 9.04289 85.7017 8.6973C85.936 8.35217 86.0533 7.90519 86.0533 7.35634Z" fill="#1D1D1B"/>
<mask id="mask0_1057_8" style="mask-type:luminance" maskUnits="userSpaceOnUse" x="92" y="0" width="18" height="23">
<path fill-rule="evenodd" clip-rule="evenodd" d="M92.7422 0.195068H109.185V22.8681H92.7422V0.195068Z" fill="white"/>
</mask>
<g mask="url(#mask0_1057_8)">
<path fill-rule="evenodd" clip-rule="evenodd" d="M105.872 6.35078C105.427 5.78239 104.844 5.32982 104.125 4.99447C103.406 4.65958 102.712 4.49213 102.043 4.49213C101.698 4.49213 101.349 4.52236 100.994 4.58329C100.639 4.64423 100.32 4.76144 100.037 4.93354C99.7529 5.10656 99.5149 5.32982 99.3229 5.60425C99.1294 5.87821 99.0339 6.22891 99.0339 6.6559C99.0339 7.02102 99.1099 7.32615 99.2621 7.56987C99.4138 7.8136 99.6369 8.02709 99.9305 8.20989C100.224 8.39268 100.573 8.56013 100.979 8.71269C101.384 8.86525 101.84 9.02246 102.347 9.18526C103.077 9.42899 103.836 9.69829 104.626 9.99272C105.417 10.2871 106.135 10.6783 106.784 11.1658C107.432 11.6532 107.97 12.2584 108.396 12.9793C108.821 13.7007 109.033 14.5998 109.033 15.6761C109.033 16.9157 108.806 17.9873 108.35 18.8911C107.894 19.7953 107.281 20.5423 106.511 21.1311C105.741 21.7204 104.859 22.1572 103.867 22.4414C102.873 22.726 101.851 22.8684 100.797 22.8684C99.257 22.8684 97.7675 22.5986 96.3289 22.0604C94.89 21.5227 93.6945 20.7553 92.7422 19.7599L96.1462 16.2859C96.6731 16.9361 97.3671 17.4794 98.2286 17.9162C99.0895 18.3534 99.9454 18.5711 100.797 18.5711C101.182 18.5711 101.557 18.531 101.922 18.4492C102.286 18.3683 102.605 18.2362 102.879 18.0529C103.152 17.8701 103.37 17.6264 103.532 17.3217C103.694 17.0171 103.775 16.6515 103.775 16.225C103.775 15.8184 103.674 15.4733 103.472 15.1886C103.269 14.9045 102.98 14.6454 102.605 14.4114C102.23 14.1779 101.764 13.9649 101.207 13.7714C100.649 13.5788 100.017 13.3705 99.3076 13.1467C98.6182 12.9235 97.9442 12.6593 97.2859 12.3542C96.6277 12.0495 96.0399 11.6588 95.5236 11.1811C95.0064 10.7039 94.5912 10.1248 94.2772 9.44387C93.9631 8.76339 93.8063 7.93546 93.8063 6.96056C93.8063 5.76193 94.0494 4.73586 94.5356 3.88235C95.0217 3.02884 95.66 2.32836 96.4505 1.77951C97.2405 1.23113 98.1325 0.830187 99.1248 0.575763C100.117 0.322269 101.121 0.194824 102.134 0.194824C103.349 0.194824 104.591 0.41855 105.857 0.865537C107.123 1.31252 108.232 1.973 109.186 2.84651L105.872 6.35078Z" fill="#1D1D1B"/>
</g>
</svg>
