<svg width="186" height="63" viewBox="0 0 186 63" fill="none" xmlns="http://www.w3.org/2000/svg">
<path fill-rule="evenodd" clip-rule="evenodd" d="M54.1943 16.7473V38.1979H67.5756V33.6834H59.3543V16.7473H54.1943Z" fill="#1D1D1B"/>
<path fill-rule="evenodd" clip-rule="evenodd" d="M85.7846 38.1979L84.0834 33.9866H75.6073L73.9987 38.1979H68.2446L77.4317 16.7473H82.5673L91.6619 38.1979H85.7846ZM79.9072 22.4739L77.123 29.836H82.6292L79.9072 22.4739Z" fill="#1D1D1B"/>
<path fill-rule="evenodd" clip-rule="evenodd" d="M100.844 29.1086V38.1979H95.6798V29.1086L87.6475 16.7473H93.8985L98.458 24.6851L103.018 16.7473H109.058L100.844 29.1086Z" fill="#1D1D1B"/>
<path fill-rule="evenodd" clip-rule="evenodd" d="M111.065 38.1979V16.7473H125.248V21.1102H115.982V25.1702H124.741V29.3209H115.982V33.7744H125.784V38.1979H111.065Z" fill="#1D1D1B"/>
<path fill-rule="evenodd" clip-rule="evenodd" d="M140.266 38.3195L135.594 29.756H133.822V38.3195H128.747V16.7432H136.954C137.986 16.7432 138.994 16.8501 139.978 17.0632C140.96 17.2767 141.842 17.6376 142.622 18.1451C143.402 18.6534 144.024 19.3237 144.491 20.1563C144.957 20.9898 145.189 22.0261 145.189 23.2652C145.189 24.7275 144.795 25.9573 144.004 26.9527C143.214 27.9481 142.12 28.6588 140.722 29.0858L146.345 38.3195H140.266ZM140.053 23.3563C140.053 22.8489 139.946 22.4372 139.732 22.1224C139.518 21.8075 139.243 21.5637 138.908 21.3907C138.571 21.2186 138.195 21.1009 137.778 21.0405C137.36 20.9791 136.958 20.9488 136.571 20.9488H133.792V25.9773H136.266C136.693 25.9773 137.131 25.942 137.579 25.8703C138.027 25.7996 138.434 25.6722 138.801 25.4894C139.168 25.3066 139.468 25.0429 139.702 24.6973C139.936 24.3522 140.053 23.9052 140.053 23.3563Z" fill="#1D1D1B"/>
<mask id="mask0_465_7046" style="mask-type:luminance" maskUnits="userSpaceOnUse" x="146" y="16" width="18" height="23">
<path fill-rule="evenodd" clip-rule="evenodd" d="M146.742 16.1951H163.185V38.8681H146.742V16.1951Z" fill="white"/>
</mask>
<g mask="url(#mask0_465_7046)">
<path fill-rule="evenodd" clip-rule="evenodd" d="M159.872 22.3508C159.427 21.7824 158.844 21.3298 158.125 20.9945C157.406 20.6596 156.712 20.4921 156.043 20.4921C155.698 20.4921 155.349 20.5224 154.994 20.5833C154.639 20.6442 154.32 20.7614 154.037 20.9335C153.753 21.1066 153.515 21.3298 153.323 21.6042C153.129 21.8782 153.034 22.2289 153.034 22.6559C153.034 23.021 153.11 23.3261 153.262 23.5699C153.414 23.8136 153.637 24.0271 153.931 24.2099C154.224 24.3927 154.573 24.5601 154.979 24.7127C155.384 24.8653 155.84 25.0225 156.347 25.1853C157.077 25.429 157.836 25.6983 158.626 25.9927C159.417 26.2871 160.135 26.6783 160.784 27.1658C161.432 27.6532 161.97 28.2584 162.396 28.9793C162.821 29.7007 163.033 30.5998 163.033 31.6761C163.033 32.9157 162.806 33.9873 162.35 34.8911C161.894 35.7953 161.281 36.5423 160.511 37.1311C159.741 37.7204 158.859 38.1572 157.867 38.4414C156.873 38.726 155.851 38.8684 154.797 38.8684C153.257 38.8684 151.767 38.5986 150.329 38.0604C148.89 37.5227 147.695 36.7553 146.742 35.7599L150.146 32.2859C150.673 32.9361 151.367 33.4794 152.229 33.9162C153.09 34.3534 153.945 34.5711 154.797 34.5711C155.182 34.5711 155.557 34.531 155.922 34.4492C156.286 34.3683 156.605 34.2362 156.879 34.0529C157.152 33.8701 157.37 33.6264 157.532 33.3217C157.694 33.0171 157.775 32.6515 157.775 32.225C157.775 31.8184 157.674 31.4733 157.472 31.1886C157.269 30.9045 156.98 30.6454 156.605 30.4114C156.23 30.1779 155.764 29.9649 155.207 29.7714C154.649 29.5788 154.017 29.3705 153.308 29.1467C152.618 28.9235 151.944 28.6593 151.286 28.3542C150.628 28.0495 150.04 27.6588 149.524 27.1811C149.006 26.7039 148.591 26.1248 148.277 25.4439C147.963 24.7634 147.806 23.9355 147.806 22.9606C147.806 21.7619 148.049 20.7359 148.536 19.8823C149.022 19.0288 149.66 18.3284 150.45 17.7795C151.24 17.2311 152.133 16.8302 153.125 16.5758C154.117 16.3223 155.121 16.1948 156.134 16.1948C157.349 16.1948 158.591 16.4186 159.857 16.8655C161.123 17.3125 162.232 17.973 163.186 18.8465L159.872 22.3508Z" fill="#1D1D1B"/>
</g>
<path fill-rule="evenodd" clip-rule="evenodd" d="M12.5225 12.4162V59.033V60.8929V60.9115H42.3762L44.2512 59.033H14.3974V10.5378L12.5225 12.4162Z" fill="black"/>
<path fill-rule="evenodd" clip-rule="evenodd" d="M24.2573 0.659424L22.3823 2.53777V49.6064V49.6912V51.4847H51.7849L53.6598 49.6064H24.2573V0.659424Z" fill="black"/>
<path fill-rule="evenodd" clip-rule="evenodd" d="M19.2617 5.79614L17.3867 7.67462V56.3957H19.2617H47.0149L48.89 54.5172H19.2617V5.79614Z" fill="black"/>
</svg>
